# xmcd
#
# Track frame offsets:
#	150
#	15840
#	32717
#	49786
#	71620
#	88385
#	100936
#	117409
#	128975
#	140878
#	162661
#	179518
#	195866
#	210557
#	225189
#
# Disc length: 3176
#
# Revision: 2
# Processed by: cddbd v1.5.1PL0 Copyright (c) Steve Scherf et al.
# Submitted via: EasyCDDAExtractor 7.0.5.4
# Normalized: r1:TDELIM( - )
#
DISCID=cf0c660f
DTITLE=Cabocla - Nacional
DYEAR=2004
DGENRE=Pop
TTITLE0=Nosso Amor É Ouro - Zezé Di Camargo and Luciano
TTITLE1=Você, O Amor E Eu - Cleiton and Camargo
TTITLE2=Floresce - Rio Negro and Solimões
TTITLE3=Outro Lugar - Milton Nascimento
TTITLE4=Sertaneja - Ivan Lins
TTITLE5=História Do Sertão - Roberta Miranda
TTITLE6=Amora - Renato Teixeira
TTITLE7=Manhã Bonita - Rolando Boldrin
TTITLE8=Madrigal - Lazza, Schiavon and Deluqui
TTITLE9=Céu De Santo Amaro - Flávio Venturini and Caetano Veloso
TTITLE10=Sem Palavras - Marlon and Maicon
TTITLE11=Riacho Sereno - Rick and Renner
TTITLE12=Meu Cavalo Zaino - Sérgio Reis
TTITLE13=O Trem Tá Feio - Teodoro and Sampaio
TTITLE14=Benzinho - Almir Sater
EXTD=
EXTT0=
EXTT1=
EXTT2=
EXTT3=
EXTT4=
EXTT5=
EXTT6=
EXTT7=
EXTT8=
EXTT9=
EXTT10=
EXTT11=
EXTT12=
EXTT13=
EXTT14=
PLAYORDER=
